<?xml version="1.0" encoding="UTF-8" standalone="no"?>
<svg
   xmlns:dc="http://purl.org/dc/elements/1.1/"
   xmlns:cc="http://creativecommons.org/ns#"
   xmlns:rdf="http://www.w3.org/1999/02/22-rdf-syntax-ns#"
   xmlns:svg="http://www.w3.org/2000/svg"
   xmlns="http://www.w3.org/2000/svg"
   xmlns:sodipodi="http://sodipodi.sourceforge.net/DTD/sodipodi-0.dtd"
   xmlns:inkscape="http://www.inkscape.org/namespaces/inkscape"
   height="16"
   width="14"
   version="1.1"
   id="svg12"
   sodipodi:docname="clippy.svg"
   inkscape:version="1.0 (4035a4f, 2020-05-01)">
  <metadata
     id="metadata18">
    <rdf:RDF>
      <cc:Work
         rdf:about="">
        <dc:format>image/svg+xml</dc:format>
        <dc:type
           rdf:resource="http://purl.org/dc/dcmitype/StillImage" />
      </cc:Work>
    </rdf:RDF>
  </metadata>
  <defs
     id="defs16" />
  <sodipodi:namedview
     inkscape:document-rotation="0"
     pagecolor="#ffffff"
     bordercolor="#666666"
     borderopacity="1"
     objecttolerance="10"
     gridtolerance="10"
     guidetolerance="10"
     inkscape:pageopacity="0"
     inkscape:pageshadow="2"
     inkscape:window-width="1175"
     inkscape:window-height="715"
     id="namedview14"
     showgrid="false"
     inkscape:zoom="28.562397"
     inkscape:cx="7.1378846"
     inkscape:cy="8.5570722"
     inkscape:window-x="0"
     inkscape:window-y="23"
     inkscape:window-maximized="0"
     inkscape:current-layer="svg12" />
  <path
     d="m 2.0747006,12.041902 h 4 v 1 h -4 z m 5,-5.9999994 h -5 v 1 h 5 z m 2,3 v -2 l -3,3.0000004 3,2.999999 v -2 H 14.0747 V 9.0419026 Z m -4.5,-1 h -2.5 v 1 h 2.5 z m -2.5,2.9999994 h 2.5 v -0.999999 h -2.5 z m 8.9999994,1 h 1 v 2 c -0.02,0.28 -0.11,0.52 -0.3,0.7 -0.19,0.18 -0.42,0.28 -0.7,0.3 H 1.0747006 c -0.54999999,0 -0.99999999,-0.45 -0.99999999,-1 V 3.0419026 c 0,-0.55 0.45,-1 0.99999999,-1 h 3 c 0,-1.10999998 0.89,-1.99999998 2,-1.99999998 1.11,0 2,0.89 2,1.99999998 H 11.0747 c 0.55,0 1,0.45 1,1 v 5 h -1 v -3 H 1.0747006 V 14.041902 H 11.0747 Z M 2.0747006,4.0419026 h 8.0000004 c 0,-0.55 -0.4500004,-1 -1.0000004,-1 h -1 c -0.55,0 -1,-0.45 -1,-1 0,-0.55 -0.45,-1 -1,-1 -0.55,0 -1,0.45 -1,1 0,0.55 -0.45,1 -1,1 h -1 c -0.55,0 -1,0.45 -1,1 z"
     id="path10"
     style="fill:#f9f9f9" />
</svg>
